<svg width="129" height="34" viewBox="0 0 129 34" fill="none" xmlns="http://www.w3.org/2000/svg">
<path d="M27.1411 32V2H30.5161V32H27.1411ZM45.4389 32.375C43.4806 32.375 41.7202 31.9375 40.1577 31.0625C38.616 30.1875 37.3973 29 36.5014 27.5C35.6264 25.9792 35.1889 24.2917 35.1889 22.4375C35.1889 20.6667 35.616 19.0625 36.4702 17.625C37.3243 16.1667 38.4702 15.0104 39.9077 14.1562C41.366 13.3021 42.9702 12.875 44.7202 12.875C46.4493 12.875 48.0327 13.2917 49.4702 14.125C50.9077 14.9375 52.0535 16.0417 52.9077 17.4375C53.7618 18.8333 54.1889 20.4167 54.1889 22.1875V23.5625H41.9389C41.3973 23.5625 40.8452 23.5417 40.2827 23.5C39.7202 23.4583 39.1681 23.3958 38.6264 23.3125C38.8556 24.9792 39.6056 26.375 40.8764 27.5C42.1681 28.625 43.6993 29.1875 45.4702 29.1875C46.6577 29.1875 47.7618 28.9167 48.7827 28.375C49.8035 27.8333 50.6264 27.1146 51.2514 26.2187L52.1889 30.0625C51.2931 30.7917 50.2618 31.3646 49.0952 31.7812C47.9493 32.1771 46.7306 32.375 45.4389 32.375ZM38.5327 21.0312C39.6577 20.8437 40.7931 20.75 41.9389 20.75H48.1577C48.616 20.75 49.0639 20.7708 49.5014 20.8125C49.9598 20.8333 50.4181 20.8646 50.8764 20.9062C50.5848 19.4479 49.8556 18.25 48.6889 17.3125C47.5223 16.3542 46.1993 15.875 44.7202 15.875C43.1993 15.875 41.866 16.3854 40.7202 17.4062C39.5743 18.4062 38.8452 19.6146 38.5327 21.0312ZM67.3188 32.375C65.4855 32.375 63.8188 31.9375 62.3188 31.0625C60.8188 30.1875 59.6209 29.0104 58.7251 27.5313C57.8292 26.0521 57.3813 24.4167 57.3813 22.625C57.3813 20.8333 57.8292 19.1979 58.7251 17.7187C59.6209 16.2396 60.8188 15.0625 62.3188 14.1875C63.8188 13.3125 65.4855 12.875 67.3188 12.875C68.673 12.875 69.9438 13.1146 71.1313 13.5937C72.3188 14.0729 73.3605 14.7083 74.2563 15.5L73.2251 19.75C72.7042 18.7083 71.9126 17.8333 70.8501 17.125C69.8084 16.4167 68.6209 16.0625 67.2876 16.0625C66.0792 16.0625 64.9751 16.3646 63.9751 16.9687C62.9959 17.5521 62.2146 18.3438 61.6313 19.3438C61.048 20.3229 60.7563 21.4167 60.7563 22.625C60.7563 23.8125 61.048 24.9062 61.6313 25.9062C62.2146 26.9062 62.9959 27.7083 63.9751 28.3125C64.9751 28.8958 66.0792 29.1875 67.2876 29.1875C68.6209 29.1875 69.8084 28.8437 70.8501 28.1562C71.9126 27.4687 72.7042 26.5833 73.2251 25.5L74.2563 29.75C73.3605 30.5417 72.3188 31.1771 71.1313 31.6562C69.9438 32.1354 68.673 32.375 67.3188 32.375ZM80.5688 32V16.0625H76.3188V13.25H80.6626V7H83.8501V13.25H88.5063V16.0625H83.9438V32H80.5688ZM92.4438 32V13.25H95.5688V16.6875C96.2355 15.5833 97.1209 14.7083 98.2251 14.0625C99.3292 13.3958 100.642 13.0625 102.163 13.0625L103.006 16.4375C102.61 16.3125 102.152 16.25 101.631 16.25C99.8813 16.25 98.4751 16.8125 97.4126 17.9375C96.3501 19.0417 95.8188 20.625 95.8188 22.6875V32H92.4438ZM114.454 32.375C112.641 32.375 110.985 31.9375 109.485 31.0625C107.985 30.1875 106.787 29.0104 105.891 27.5313C105.016 26.0521 104.579 24.4167 104.579 22.625C104.579 20.8125 105.016 19.1771 105.891 17.7187C106.787 16.2396 107.985 15.0625 109.485 14.1875C110.985 13.3125 112.641 12.875 114.454 12.875C116.287 12.875 117.943 13.3125 119.422 14.1875C120.922 15.0625 122.11 16.2396 122.985 17.7187C123.881 19.1771 124.329 20.8125 124.329 22.625C124.329 24.4167 123.881 26.0521 122.985 27.5313C122.11 29.0104 120.922 30.1875 119.422 31.0625C117.943 31.9375 116.287 32.375 114.454 32.375ZM114.454 29.1875C115.662 29.1875 116.756 28.8958 117.735 28.3125C118.714 27.7083 119.495 26.9167 120.079 25.9375C120.662 24.9375 120.954 23.8333 120.954 22.625C120.954 21.4167 120.662 20.3229 120.079 19.3438C119.495 18.3438 118.714 17.5521 117.735 16.9687C116.756 16.3646 115.662 16.0625 114.454 16.0625C113.245 16.0625 112.151 16.3646 111.172 16.9687C110.193 17.5521 109.412 18.3438 108.829 19.3438C108.245 20.3229 107.954 21.4167 107.954 22.625C107.954 23.8333 108.245 24.9375 108.829 25.9375C109.412 26.9167 110.193 27.7083 111.172 28.3125C112.151 28.8958 113.245 29.1875 114.454 29.1875Z" fill="#374151"/>
<path d="M4.66752 32V3.875H18.5425V7.0625H8.23002V13.0625H16.355V16.25H8.23002V28.8125H18.5425V32H4.66752Z" fill="#EA580C"/>
</svg>
