<svg width="801" height="740" viewBox="0 0 801 740" fill="none" xmlns="http://www.w3.org/2000/svg">
<g clip-path="url(#clip0_619_6958)">
<path d="M800.69 174.259H796.658V63.883C796.658 55.4937 795.005 47.1865 791.795 39.4358C788.584 31.6851 783.879 24.6426 777.947 18.7105C772.014 12.7784 764.972 8.07287 757.221 4.86251C749.47 1.65215 741.163 -0.000131315 732.774 7.82757e-09H498.933C481.99 7.82759e-09 465.741 6.7305 453.761 18.7109C441.78 30.6913 435.05 46.9402 435.05 63.883V669.403C435.05 686.346 441.78 702.595 453.761 714.575C465.741 726.555 481.99 733.286 498.933 733.286H732.774C749.717 733.286 765.966 726.555 777.946 714.575C789.926 702.595 796.657 686.346 796.657 669.403V252.816H800.69V174.259Z" fill="#090814"/>
<path d="M735.361 16.623H704.843C706.247 20.065 706.783 23.7995 706.403 27.4974C706.024 31.1953 704.741 34.7431 702.667 37.8282C700.593 40.9134 697.792 43.441 694.511 45.1885C691.23 46.936 687.57 47.8497 683.853 47.8491H549.879C546.161 47.8499 542.501 46.9363 539.22 45.1889C535.938 43.4414 533.138 40.9138 531.064 37.8287C528.99 34.7435 527.706 31.1956 527.327 27.4976C526.948 23.7996 527.484 20.0651 528.888 16.623H500.388C487.735 16.623 475.601 21.6493 466.654 30.5961C457.707 39.5429 452.681 51.6774 452.681 64.3301V668.965C452.681 675.23 453.915 681.433 456.312 687.221C458.709 693.009 462.224 698.268 466.653 702.698C471.083 707.128 476.342 710.642 482.13 713.04C487.918 715.437 494.122 716.671 500.387 716.671H735.357C748.009 716.671 760.144 711.645 769.091 702.698C778.037 693.751 783.064 681.617 783.064 668.964V64.3301C783.064 51.6785 778.039 39.5449 769.093 30.5983C760.148 21.6516 748.015 16.6246 735.364 16.623H735.361Z" fill="white"/>
<path d="M716.388 99.6514H510.066C505.648 99.6514 502.066 103.233 502.066 107.651V190.579C502.066 194.998 505.648 198.579 510.066 198.579H716.388C720.806 198.579 724.388 194.998 724.388 190.579V107.651C724.388 103.233 720.806 99.6514 716.388 99.6514Z" fill="#E6E6E6"/>
<path d="M513.66 447.165C517.587 447.165 520.77 443.982 520.77 440.055C520.77 436.129 517.587 432.945 513.66 432.945C509.733 432.945 506.55 436.129 506.55 440.055C506.55 443.982 509.733 447.165 513.66 447.165Z" fill="#E6E6E6"/>
<path d="M542.959 436.374C542.47 436.365 541.985 436.455 541.531 436.636C541.078 436.818 540.665 437.087 540.316 437.43C539.968 437.773 539.691 438.181 539.502 438.632C539.314 439.083 539.216 439.566 539.216 440.055C539.216 440.544 539.314 441.027 539.502 441.478C539.691 441.929 539.968 442.337 540.316 442.68C540.665 443.023 541.078 443.293 541.531 443.474C541.985 443.655 542.47 443.745 542.959 443.737H716.516C717 443.745 717.481 443.658 717.931 443.481C718.381 443.303 718.792 443.039 719.14 442.703C719.488 442.366 719.766 441.965 719.959 441.521C720.151 441.077 720.255 440.599 720.263 440.116C720.271 439.632 720.183 439.151 720.005 438.701C719.827 438.251 719.562 437.841 719.225 437.493C718.889 437.145 718.487 436.868 718.043 436.676C717.599 436.484 717.121 436.381 716.637 436.374H542.959Z" fill="#E6E6E6"/>
<path d="M513.66 481.699C517.587 481.699 520.77 478.515 520.77 474.589C520.77 470.662 517.587 467.479 513.66 467.479C509.733 467.479 506.55 470.662 506.55 474.589C506.55 478.515 509.733 481.699 513.66 481.699Z" fill="#E6E6E6"/>
<path d="M542.959 470.907C542.47 470.899 541.985 470.988 541.531 471.169C541.078 471.351 540.665 471.621 540.316 471.963C539.968 472.306 539.691 472.715 539.502 473.165C539.314 473.616 539.216 474.1 539.216 474.588C539.216 475.077 539.314 475.561 539.502 476.011C539.691 476.462 539.968 476.871 540.316 477.213C540.665 477.556 541.078 477.826 541.531 478.007C541.985 478.189 542.47 478.278 542.959 478.27H716.516C717 478.278 717.481 478.191 717.931 478.014C718.381 477.837 718.792 477.572 719.14 477.236C719.488 476.9 719.766 476.498 719.959 476.054C720.151 475.61 720.255 475.133 720.263 474.649C720.271 474.165 720.183 473.684 720.005 473.234C719.827 472.784 719.562 472.374 719.225 472.026C718.889 471.679 718.487 471.401 718.043 471.209C717.599 471.017 717.121 470.914 716.637 470.907H542.959Z" fill="#E6E6E6"/>
<path d="M513.66 516.232C517.587 516.232 520.77 513.048 520.77 509.122C520.77 505.195 517.587 502.012 513.66 502.012C509.733 502.012 506.55 505.195 506.55 509.122C506.55 513.048 509.733 516.232 513.66 516.232Z" fill="#E6E6E6"/>
<path d="M542.959 505.439C542.47 505.431 541.985 505.52 541.531 505.702C541.078 505.883 540.665 506.153 540.316 506.496C539.968 506.838 539.691 507.247 539.502 507.697C539.314 508.148 539.216 508.632 539.216 509.12C539.216 509.609 539.314 510.093 539.502 510.544C539.691 510.994 539.968 511.403 540.316 511.745C540.665 512.088 541.078 512.358 541.531 512.539C541.985 512.721 542.47 512.81 542.959 512.802H716.516C717 512.811 717.481 512.724 717.931 512.546C718.381 512.369 718.792 512.104 719.14 511.768C719.488 511.432 719.766 511.03 719.959 510.586C720.151 510.142 720.255 509.665 720.263 509.181C720.271 508.697 720.183 508.216 720.005 507.766C719.827 507.316 719.562 506.906 719.225 506.558C718.889 506.211 718.487 505.933 718.043 505.741C717.599 505.549 717.121 505.446 716.637 505.439H542.959Z" fill="#E6E6E6"/>
<path d="M513.66 550.764C517.587 550.764 520.77 547.581 520.77 543.654C520.77 539.727 517.587 536.544 513.66 536.544C509.733 536.544 506.55 539.727 506.55 543.654C506.55 547.581 509.733 550.764 513.66 550.764Z" fill="#E6E6E6"/>
<path d="M542.959 539.972C542.47 539.964 541.985 540.053 541.531 540.235C541.078 540.416 540.665 540.686 540.316 541.029C539.968 541.371 539.691 541.78 539.502 542.231C539.314 542.681 539.216 543.165 539.216 543.654C539.216 544.142 539.314 544.626 539.502 545.077C539.691 545.527 539.968 545.936 540.316 546.279C540.665 546.621 541.078 546.891 541.531 547.073C541.985 547.254 542.47 547.343 542.959 547.335H716.516C717.492 547.35 718.433 546.977 719.134 546.298C719.835 545.619 720.237 544.69 720.253 543.714C720.269 542.739 719.897 541.796 719.219 541.095C718.541 540.393 717.613 539.989 716.637 539.972H542.959Z" fill="#E6E6E6"/>
<path d="M513.66 585.297C517.587 585.297 520.77 582.114 520.77 578.187C520.77 574.26 517.587 571.077 513.66 571.077C509.733 571.077 506.55 574.26 506.55 578.187C506.55 582.114 509.733 585.297 513.66 585.297Z" fill="#E6E6E6"/>
<path d="M542.959 574.505C542.47 574.497 541.985 574.587 541.531 574.768C541.078 574.949 540.665 575.219 540.316 575.562C539.968 575.905 539.691 576.313 539.502 576.764C539.314 577.215 539.216 577.698 539.216 578.187C539.216 578.676 539.314 579.159 539.502 579.61C539.691 580.061 539.968 580.469 540.316 580.812C540.665 581.154 541.078 581.424 541.531 581.606C541.985 581.787 542.47 581.876 542.959 581.868H716.516C717 581.877 717.481 581.79 717.931 581.613C718.381 581.435 718.792 581.171 719.14 580.835C719.488 580.498 719.766 580.097 719.959 579.653C720.151 579.209 720.255 578.731 720.263 578.247C720.271 577.764 720.183 577.283 720.005 576.833C719.827 576.383 719.562 575.972 719.225 575.625C718.889 575.277 718.487 575 718.043 574.808C717.599 574.615 717.121 574.513 716.637 574.505H542.959Z" fill="#E6E6E6"/>
<path d="M513.66 619.829C517.587 619.829 520.77 616.646 520.77 612.719C520.77 608.793 517.587 605.609 513.66 605.609C509.733 605.609 506.55 608.793 506.55 612.719C506.55 616.646 509.733 619.829 513.66 619.829Z" fill="#E6E6E6"/>
<path d="M542.959 609.039C542.47 609.031 541.985 609.12 541.531 609.301C541.078 609.483 540.665 609.753 540.316 610.095C539.968 610.438 539.691 610.846 539.502 611.297C539.314 611.748 539.216 612.231 539.216 612.72C539.216 613.209 539.314 613.692 539.502 614.143C539.691 614.594 539.968 615.002 540.316 615.345C540.665 615.688 541.078 615.958 541.531 616.139C541.985 616.32 542.47 616.41 542.959 616.402H716.516C717 616.41 717.481 616.323 717.931 616.146C718.381 615.968 718.792 615.704 719.14 615.368C719.488 615.032 719.766 614.63 719.959 614.186C720.151 613.742 720.255 613.265 720.263 612.781C720.271 612.297 720.183 611.816 720.005 611.366C719.827 610.916 719.562 610.506 719.225 610.158C718.889 609.811 718.487 609.533 718.043 609.341C717.599 609.149 717.121 609.046 716.637 609.039H542.959Z" fill="#E6E6E6"/>
<path d="M513.66 654.363C517.587 654.363 520.77 651.179 520.77 647.253C520.77 643.326 517.587 640.143 513.66 640.143C509.733 640.143 506.55 643.326 506.55 647.253C506.55 651.179 509.733 654.363 513.66 654.363Z" fill="#E6E6E6"/>
<path d="M542.959 643.571C542.47 643.563 541.985 643.652 541.531 643.833C541.078 644.015 540.665 644.285 540.316 644.627C539.968 644.97 539.691 645.379 539.502 645.829C539.314 646.28 539.216 646.764 539.216 647.252C539.216 647.741 539.314 648.225 539.502 648.675C539.691 649.126 539.968 649.535 540.316 649.877C540.665 650.22 541.078 650.49 541.531 650.671C541.985 650.853 542.47 650.942 542.959 650.934H716.516C717 650.942 717.481 650.856 717.931 650.678C718.381 650.501 718.792 650.236 719.14 649.9C719.488 649.564 719.766 649.162 719.959 648.718C720.151 648.274 720.255 647.797 720.263 647.313C720.271 646.829 720.183 646.348 720.005 645.898C719.827 645.448 719.562 645.038 719.225 644.69C718.889 644.343 718.487 644.065 718.043 643.873C717.599 643.681 717.121 643.578 716.637 643.571H542.959Z" fill="#E6E6E6"/>
<path d="M74.462 729.084C115.586 729.084 148.924 726.541 148.924 723.405C148.924 720.268 115.586 717.726 74.462 717.726C33.3378 717.726 0 720.268 0 723.405C0 726.541 33.3378 729.084 74.462 729.084Z" fill="#E6E6E6"/>
<path d="M235.087 739.722C276.211 739.722 309.549 737.18 309.549 734.043C309.549 730.907 276.211 728.364 235.087 728.364C193.963 728.364 160.625 730.907 160.625 734.043C160.625 737.18 193.963 739.722 235.087 739.722Z" fill="#E6E6E6"/>
<path d="M622.779 244.32H328.166C323.748 244.32 320.166 247.902 320.166 252.32V374.606C320.166 379.025 323.748 382.606 328.166 382.606H622.779C627.197 382.606 630.779 379.025 630.779 374.606V252.32C630.779 247.902 627.197 244.32 622.779 244.32Z" fill="#EA580C"/>
<path d="M405.641 344.578C422.749 344.578 436.618 330.709 436.618 313.601C436.618 296.493 422.749 282.624 405.641 282.624C388.533 282.624 374.664 296.493 374.664 313.601C374.664 330.709 388.533 344.578 405.641 344.578Z" fill="white"/>
<path d="M475.561 309.483C474.6 309.483 473.679 309.865 473 310.544C472.321 311.224 471.939 312.145 471.939 313.105C471.939 314.066 472.321 314.987 473 315.667C473.679 316.346 474.6 316.727 475.561 316.727H573.361C574.322 316.743 575.249 316.377 575.94 315.709C576.63 315.041 577.027 314.126 577.042 313.165C577.058 312.204 576.692 311.277 576.024 310.586C575.356 309.896 574.441 309.499 573.48 309.483H475.561Z" fill="white"/>
<path d="M475.561 288.495C474.6 288.495 473.679 288.877 473 289.556C472.321 290.235 471.939 291.156 471.939 292.117C471.939 293.078 472.321 293.999 473 294.678C473.679 295.358 474.6 295.739 475.561 295.739H524.403C525.364 295.755 526.291 295.388 526.982 294.72C527.672 294.052 528.069 293.137 528.084 292.177C528.1 291.216 527.734 290.288 527.066 289.598C526.398 288.908 525.483 288.511 524.522 288.495H475.561Z" fill="white"/>
<path d="M475.561 331.464C474.6 331.464 473.679 331.845 473 332.525C472.321 333.204 471.939 334.125 471.939 335.086C471.939 336.046 472.321 336.968 473 337.647C473.679 338.326 474.6 338.708 475.561 338.708H573.361C574.322 338.724 575.249 338.357 575.94 337.689C576.63 337.021 577.027 336.106 577.042 335.145C577.058 334.185 576.692 333.257 576.024 332.567C575.356 331.876 574.441 331.48 573.48 331.464H475.561Z" fill="white"/>
<path d="M167.814 550.834C168.214 560.713 161.905 569.47 155.997 577.34C153.303 581.027 128.262 606.009 120.697 616.928C118.865 619.575 73.897 671.477 71.597 676.287C71.0551 677.426 70.6086 678.607 70.262 679.82C68.915 684.429 68.856 689.392 68.974 694.308V697.747C69.21 705.247 69.553 712.791 71.337 720.058C71.597 721.122 71.892 722.197 72.046 723.272C71.5687 722.959 71.1182 722.607 70.699 722.22L46.257 704.086L44.733 702.952C43.173 698.438 41.696 693.876 40.033 689.421C39.04 686.774 40.104 683.749 41.853 681.539C43.7477 679.446 45.8371 677.537 48.093 675.839C49.8246 674.047 51.3689 672.083 52.702 669.977C69.564 645.434 117.057 557.361 120.52 539.634C125.084 538.784 129.761 538.724 134.346 539.457L158.725 542.695C161.36 543.05 164.244 543.534 165.957 545.555C167.127 547.069 167.778 548.92 167.814 550.834Z" fill="#ED9DA0"/>
<path d="M271.878 570.974C271.359 574.658 270.057 578.188 268.061 581.326C265.556 585.143 236.78 659.155 227.835 689.715C226.192 695.328 227.055 700.752 226.878 702.631C226.736 704.191 226.606 705.751 226.488 707.299C226.323 709.225 226.188 711.152 226.051 713.066C225.685 718.136 225.366 723.466 227.505 728.074C228.344 729.894 229.605 731.466 230.164 733.285C229.33 732.857 228.557 732.317 227.869 731.679L203.431 713.539C201.437 707.893 199.899 702.096 198.831 696.203C198.216 692.859 197.921 689.018 200.013 686.454C200.133 686.297 200.264 686.147 200.403 686.005C201.085 685.365 201.848 684.817 202.672 684.374C203.428 683.96 204.154 683.493 204.846 682.979C205.365 682.573 205.833 682.105 206.24 681.585C208.249 679.103 208.97 675.617 209.573 672.344C211.936 658.944 231.955 576.718 231.573 574.685C231.159 572.685 219.791 553.532 211.992 549.278C220.087 542.499 229.32 537.21 239.262 533.656C241.014 532.841 242.952 532.51 244.875 532.699C245.904 532.926 246.887 533.326 247.782 533.881C253.135 536.881 257.236 541.61 261.159 546.337C267.009 553.449 272.859 561.816 271.878 570.974Z" fill="#ED9DA0"/>
<path d="M217.348 637.145C214.363 638.672 234.066 576.707 229.699 577.384C223.142 578.4 192.317 521.238 185.292 521.908C176.845 522.714 173.234 567.769 164.88 567.99C161.496 568.079 129.786 615.739 125.787 617.248C98.223 627.638 90.874 622.271 85.64 614.848C82.426 614.068 117.984 546.476 117.972 544.633C117.972 541.419 120.292 503.723 125.787 487.025C127.158 482.877 128.15 478.625 129.699 474.525C136.388 456.043 139.259 441.862 151.478 426.476C153.348 424.316 154.886 421.89 156.04 419.276C157.089 416.14 157.635 412.857 157.659 409.55L158.333 397.981C176.449 397.13 194.045 397.473 211.771 401.302C212.247 401.288 212.722 401.368 213.167 401.537C213.612 401.706 214.02 401.962 214.367 402.288C214.714 402.615 214.993 403.007 215.188 403.442C215.383 403.876 215.491 404.345 215.505 404.821V404.847C216.19 409.078 216.671 413.328 216.947 417.598C216.955 418.542 217.089 419.48 217.347 420.387C217.812 421.535 218.458 422.6 219.261 423.542C229.518 436.99 235.805 453.085 240.769 469.204C245.733 485.323 249.679 501.891 255.919 517.655C258.07 523.091 272.228 562.168 272.795 567.994C273.32 568.384 259.454 631.622 255.919 637.149C244.942 654.311 229.584 630.894 217.348 637.145Z" fill="#090814"/>
<path d="M278.432 348.723C281.552 346.088 284.672 343.441 287.532 340.534C291.568 336.257 295.296 331.7 298.688 326.897C302.304 321.969 305.897 316.923 308.142 311.227C310.683 304.704 311.463 297.283 315.882 291.87C316.383 291.166 317.078 290.624 317.882 290.31C320.399 289.518 322.282 292.673 322.763 295.285C325.127 308.071 319.49 320.834 314.006 332.628C312.198 336.516 310.306 340.51 307.176 343.453C305.458 344.921 303.663 346.298 301.799 347.577C299.031 349.827 296.483 352.336 294.189 355.069C290.25 359.543 286.504 364.18 282.951 368.978C278.543 374.887 274.407 381.078 269.184 386.291C263.961 391.504 257.426 395.745 250.111 396.773C252.203 396.489 251.517 384.211 251.293 382.663C250.974 380.418 249.438 377.771 249.393 375.573C249.334 372.879 250.433 372.489 252.655 370.598L278.432 348.723Z" fill="#ED9DA0"/>
<path d="M190.723 271.39C190.723 271.39 183.633 306.842 175.36 312.751C167.087 318.66 220.266 325.751 220.266 325.751C220.266 325.751 221.448 297.389 235.629 284.39C249.81 271.391 190.723 271.39 190.723 271.39Z" fill="#ED9DA0"/>
<path d="M238.37 412.169C240.123 412.718 241.959 412.958 243.794 412.878C249.999 412.811 256.113 411.387 261.709 408.706C262.233 408.503 262.697 408.17 263.056 407.737C263.266 407.284 263.379 406.792 263.389 406.293C263.399 405.794 263.306 405.298 263.115 404.837C259.782 391.365 266.215 376.085 259.83 363.772C252.893 366.029 245.283 368.499 238.346 370.697C237.282 371.129 236.137 371.323 234.99 371.264C233.616 370.979 232.358 370.292 231.374 369.291C223.858 362.791 219.119 353.739 214.83 344.791C210.541 335.843 206.33 326.616 199.574 319.336C192.818 312.056 186.492 308.204 176.613 309.256C173.106 309.735 169.887 311.454 167.537 314.101C161.959 320.101 160.848 329.239 162.81 337.201C164.772 345.163 169.274 352.221 173.954 358.945C180.054 367.713 186.61 376.352 195.083 382.863C199.667 386.183 204.424 389.256 209.335 392.069" fill="#E6E6E6"/>
<path d="M218.493 297.977C238.073 297.977 253.945 282.105 253.945 262.525C253.945 242.946 238.073 227.073 218.493 227.073C198.913 227.073 183.041 242.946 183.041 262.525C183.041 282.105 198.913 297.977 218.493 297.977Z" fill="#ED9DA0"/>
<path d="M232.674 364.557C222.016 377.124 219.764 393.18 217.583 409.026C206.876 405.398 195.012 411.484 183.927 409.262C178.36 407.409 172.47 406.725 166.627 407.254C162.527 406.863 158.461 404.287 154.55 405.599C148.05 409.718 154.38 384.199 153.993 376.788C150.585 251.699 252.044 312.551 232.674 364.557Z" fill="#E6E6E6"/>
<path d="M292.613 353.448C295.733 350.813 298.853 348.166 301.713 345.259C305.748 340.982 309.476 336.425 312.869 331.622C316.485 326.694 320.078 321.648 322.323 315.952C324.864 309.429 325.644 302.008 330.063 296.595C330.563 295.892 331.259 295.349 332.063 295.035C334.58 294.243 336.463 297.398 336.944 300.01C339.308 312.796 333.671 325.559 328.187 337.353C326.379 341.241 324.487 345.235 321.357 348.178C319.639 349.647 317.844 351.023 315.98 352.302C313.212 354.553 310.664 357.061 308.37 359.794C304.431 364.269 300.685 368.905 297.132 373.703C292.724 379.612 288.588 385.803 283.365 391.015C278.142 396.227 271.607 400.469 264.292 401.497C266.384 401.213 265.698 388.935 265.474 387.387C265.155 385.142 263.619 382.495 263.574 380.297C263.515 377.603 264.614 377.213 266.836 375.322L292.613 353.448Z" fill="#ED9DA0"/>
<path d="M190.794 313.991C187.287 314.47 184.068 316.188 181.718 318.836C176.14 324.836 175.029 333.974 176.991 341.936C178.953 349.898 183.455 356.955 188.135 363.679C194.235 372.447 200.791 381.086 209.265 387.597C213.849 390.917 218.606 393.99 223.517 396.803C231.677 401.829 239.517 400.264 246.998 406.257C248.638 407.742 250.515 408.94 252.552 409.803C254.305 410.352 256.141 410.592 257.976 410.511C264.176 410.444 270.295 406.656 275.891 403.976C276.415 403.773 276.879 403.44 277.238 403.007C277.448 402.554 277.561 402.063 277.571 401.564C277.581 401.065 277.488 400.569 277.297 400.108C273.965 386.636 280.397 380.808 274.012 368.496C267.075 370.753 259.465 373.222 252.528 375.42C251.464 375.852 250.319 376.046 249.172 375.988C247.798 375.702 246.54 375.015 245.556 374.014C238.04 367.514 233.301 358.462 229.012 349.514C224.723 340.566 220.512 331.34 213.756 324.06C207 316.78 200.673 312.944 190.794 313.991Z" fill="#E6E6E6"/>
<path d="M240.16 733.711C238.58 735.317 236.526 736.373 234.3 736.722C232.074 737.071 229.795 736.695 227.799 735.649C226.966 735.22 226.195 734.679 225.507 734.042L201.069 715.902L191.379 708.702C190.36 707.754 189.544 706.609 188.981 705.335C188.419 704.062 188.121 702.688 188.107 701.296C188.093 699.904 188.362 698.524 188.898 697.239C189.434 695.955 190.226 694.793 191.225 693.824L197.654 688.813L200.313 686.733L203.882 683.944L207.002 681.51L227.021 692.737L227.364 693.399L242.514 722.611C243.222 724.492 243.377 726.538 242.961 728.505C242.544 730.472 241.573 732.278 240.162 733.711H240.16Z" fill="#090814"/>
<path d="M82.9892 724.259C81.4094 725.865 79.3548 726.921 77.1289 727.27C74.903 727.619 72.6238 727.242 70.6282 726.197C70.3041 726.027 69.9887 725.842 69.6832 725.642C69.2059 725.329 68.7554 724.977 68.3362 724.59L43.8982 706.45L42.3742 705.316L34.2082 699.254C33.1889 698.306 32.3731 697.16 31.8106 695.887C31.248 694.614 30.9505 693.239 30.9361 691.848C30.9217 690.456 31.1907 689.076 31.7268 687.791C32.2628 686.506 33.0547 685.344 34.0542 684.376L40.4832 679.365L43.1422 677.285L46.7112 674.496L49.8312 672.062L50.3392 672.346L67.9002 682.19L69.8502 683.29L70.1932 683.952L85.3432 713.164C86.0503 715.045 86.2044 717.089 85.7873 719.055C85.3701 721.021 84.3993 722.827 82.9892 724.259Z" fill="#090814"/>
<path d="M253.445 257.382C251.362 247.19 246.79 244.892 239.218 237.682C237.418 237.936 239.692 247.255 229.786 260.236C215.386 279.106 216.821 261.805 212.563 267.617C211.639 268.879 211.439 273.432 211.743 274.998C212.943 281.187 220.043 275.144 212.563 296.322C211.45 297.969 210.137 297.569 208.463 297.552C208.333 297.552 209.183 297.389 206.003 296.732C204.485 296.419 202.361 296.048 199.814 295.619C170.227 290.634 159.779 253.301 182.648 233.878C187.848 229.459 192.958 226.11 197.391 224.558C210.744 219.884 241.169 222.922 247.011 238.091C249.797 245.327 254.3 249.818 253.446 257.38L253.445 257.382Z" fill="#090814"/>
<path d="M188.934 320.232C200.588 320.232 210.036 310.785 210.036 299.13C210.036 287.476 200.588 278.028 188.934 278.028C177.28 278.028 167.832 287.476 167.832 299.13C167.832 310.785 177.28 320.232 188.934 320.232Z" fill="#090814"/>
</g>
<defs>
<clipPath id="clip0_619_6958">
<rect width="800.69" height="739.722" fill="white"/>
</clipPath>
</defs>
</svg>
